PathFileType	4	(X/Y/Z)	C:\Users\WrightLab\Desktop\Jo\P5V111.trc
DataRate	CameraRate	NumFrames	NumMarkers	Units	OrigDataRate	OrigDataStartFrame	OrigNumFrames
100.00	100.00	      9	19	mm	100.00	1021	      1166
Frame#	Time	Headset_Front			Headset_Back			Headset_Left			Headset_Right			Left_Shoulder			Right_Shoulder			Sternum			C7			Left Elbow			Right Elbow			Left Wrist			Right Wrist			Left ASIS			Right ASIS			S2			Left Knee			Right Knee			Left Ankle			Right Ankle			
		X1	Y1	Z1	X2	Y2	Z2	X3	Y3	Z3	X4	Y4	Z4	X5	Y5	Z5	X6	Y6	Z6	X7	Y7	Z7	X8	Y8	Z8	X9	Y9	Z9	X10	Y10	Z10	X11	Y11	Z11	X12	Y12	Z12	X13	Y13	Z13	X14	Y14	Z14	X15	Y15	Z15	X16	Y16	Z16	X17	Y17	Z17	X18	Y18	Z18	X19	Y19	Z19	

1021	10.200	-102.14668	1465.30054	-592.45587	-260.84286	1092.89526	-493.50278							-232.54271	1463.09595	-925.94769	46.14015	1460.70544	-969.56854	-85.90166	1303.49744	-827.12616	78.48272	1539.05505	-746.81152				213.70201	1230.87903	-1044.44446	-79.02998	1220.89307	-450.69705	51.17268	1064.30652	-1114.96936	-117.08869	908.14307	-701.90234	9.97498	948.36444	-952.25671	168.87846	997.00549	-659.00171	-89.45944	496.77045	-621.96570	25.02179	495.65900	-979.92096	33.07378	80.37478	-640.04022	284.46912	195.83954	-860.26355	
1022	10.210	-106.35349	1466.62793	-593.89612	-263.68750	1093.70374	-494.96945							-237.51968	1464.00159	-926.28979	41.41178	1461.29907	-970.86847	-90.10872	1303.90173	-827.57739	74.71432	1539.21594	-748.25952				209.15964	1231.46423	-1046.84290	-82.68727	1221.88416	-450.99725	46.17994	1064.96790	-1116.72839	-121.37625	909.21722	-702.75745	4.50697	948.64093	-953.81604	162.05475	996.38965	-662.65027	-93.81923	496.60617	-624.73291	15.37162	497.13684	-983.69415	32.53351	80.83353	-639.97540	272.32172	194.72411	-867.38892	
1023	10.220	-107.10835	1465.69250	-593.63715	-267.35938	1094.85156	-496.53027							-242.45882	1464.95178	-926.77136	36.58840	1461.51013	-972.28308	-94.36586	1304.21423	-828.30493	71.03077	1539.33813	-749.77521				204.31601	1232.15869	-1049.27710	-84.26686	1221.44336	-452.06415	41.08278	1065.82898	-1118.51538	-125.71462	908.95404	-703.55164	-2.70476	949.33838	-955.48218	156.12421	996.05042	-666.16907	-97.33488	496.18481	-627.46759	5.82861	498.53250	-987.39923	32.69317	81.07712	-640.10962	261.95270	193.73331	-875.95233	
1024	10.230	-101.39172	1467.27686	-590.98389	-270.18481	1096.74487	-498.85580							-247.30693	1465.51392	-926.83301	31.81790	1461.94238	-973.59552	-98.48903	1305.17480	-829.40729	67.32725	1539.41162	-751.69165				199.39912	1232.35266	-1051.29956	-87.97706	1221.62366	-454.59235	35.69898	1065.90149	-1119.78357	-129.54968	909.67627	-704.59467	-7.65947	950.20313	-956.92145	149.98952	995.48529	-669.74719	-101.14188	496.08676	-631.73566	-4.20072	499.56146	-990.12329	32.37524	81.30923	-640.16156	249.33936	191.43054	-884.30701	
1025	10.240	-106.23785	1467.48962	-592.26556	-273.60211	1098.09534	-500.33560							-252.06389	1466.24524	-926.87549	26.84716	1461.78992	-975.45416	-102.82381	1305.05322	-830.12842	63.72326	1539.46277	-753.28448				194.02582	1233.14429	-1054.25647	-90.21750	1221.39807	-455.04489	30.18913	1067.02783	-1122.39209	-133.84001	910.35199	-705.12244	-11.91755	950.11584	-959.12616	144.61389	995.04553	-674.01324	-104.28057	495.60980	-633.82587	-13.71197	501.46628	-992.75623	32.23243	81.57217	-640.21045	238.40349	188.98741	-892.90363	
1026	10.250	-111.66455	1468.58716	-594.25568	-275.61038	1099.18774	-501.69641							-257.00504	1466.53882	-927.12262	21.84745	1462.40637	-977.41644	-106.94258	1305.58459	-830.89362	60.22864	1539.50916	-754.95209				188.83997	1233.53748	-1056.98633	-90.96204	1222.00671	-456.27609	24.44022	1067.21436	-1124.22290	-139.17851	910.90564	-705.53857	-18.74126	950.27502	-960.63330	139.03935	994.61035	-678.27582	-106.44664	496.07083	-637.13513	-23.94129	503.34790	-997.22223	32.56518	81.42678	-640.69495	225.41629	185.61293	-902.77136	
1027	10.260	-116.58563	1469.01855	-596.00409	-279.23416	1100.38623	-501.91101							-261.73969	1467.03625	-927.25916	16.87814	1461.98242	-978.82782	-111.29665	1305.64954	-831.82690	56.74242	1539.49512	-756.64374				183.48560	1233.60608	-1059.76770	-94.34758	1221.64124	-457.53131	18.47311	1067.57275	-1126.27649	-142.24168	910.10168	-706.25165	-23.86216	950.16724	-962.36377	132.75064	994.15918	-682.88544	-108.38885	496.64514	-637.67865	-34.40592	504.57428	-999.83392	32.52781	81.62756	-640.89240	213.10562	183.01788	-912.79498	
1028	10.270	-121.37169	1469.34705	-597.62372	-280.66772	1101.51013	-504.85541							-266.32260	1467.09009	-927.14746	11.80515	1462.29565	-980.61328	-115.42036	1305.82996	-832.42334	53.30903	1539.42627	-758.38574				177.76274	1233.66028	-1063.27051	-97.32185	1221.73254	-459.40891	12.28756	1067.55078	-1128.32141	-146.63707	910.80231	-707.41608	-29.26875	950.84833	-963.79327	127.82528	994.22589	-686.87152	-109.38245	496.95135	-637.85229	-44.00315	506.79568	-1004.01910	31.83645	81.88177	-641.21082	199.93259	179.52609	-922.73718	
1029	10.280	-126.11864	1469.17810	-599.29498	-281.96970	1102.31189	-505.84671							-270.84879	1467.31433	-926.59143	6.53641	1462.06152	-982.83282	-119.72864	1305.85742	-833.88391	49.82930	1539.30920	-761.13220				171.76031	1233.78540	-1066.80286	-96.10674	1221.48596	-458.36850	5.99080	1067.93738	-1131.05908	-150.82088	911.04688	-706.93036	-34.63243	950.32312	-966.19757	124.18600	994.49591	-690.34552	-110.42590	496.50446	-638.06567	-54.80088	507.59851	-1005.09082	31.86755	82.02114	-641.44476	186.73685	175.53481	-932.49945	
